<svg width="425" height="680" xmlns="http://www.w3.org/2000/svg" xmlns:xlink="http://www.w3.org/1999/xlink" overflow="hidden"><defs><clipPath id="clip0"><rect x="35" y="14" width="425" height="680"/></clipPath><clipPath id="clip1"><rect x="35" y="14" width="424" height="679"/></clipPath><clipPath id="clip2"><rect x="35" y="14" width="424" height="680"/></clipPath></defs><g clip-path="url(#clip0)" transform="translate(-35 -14)"><g clip-path="url(#clip1)"><g clip-path="url(#clip2)"><path d="M10.2307 442.234C5.28292 441.779 1.21892 441.387 1.19959 441.37 1.18026 441.348 1.07235 435.02 0.959794 427.308 0.847239 419.596 0.553487 403.4 0.307011 391.317-0.516876 350.932 0.949814 328.616 5.45702 312.956 9.55391 298.723 16.6893 285.107 26.46 272.877 30.632 267.655 40.8014 257.324 46.0381 252.988 73.7675 230.026 106.235 215.823 145.699 209.393 160.561 206.971 173.419 205.871 193.325 205.317 211.945 204.798 214.756 204.355 215.996 201.74 217.174 199.259 217.373 196.024 217.671 174.627 217.97 153.113 218.147 149.606 219.463 138.996 225.577 89.7436 248.986 52.6715 288.168 30.1909 313.933 15.4079 342.994 7.31258 387.002 2.65895 410.113 0.215007 416.135-0.0801966 437.097 0.202721L455.266 0.447924 455.287 18.8332C455.305 30.5227 455.53 41.9081 455.911 50.0951 457.509 84.3273 456.931 104.291 453.823 122.063 448.838 150.583 437.524 173.209 419.046 191.613 404.761 205.838 385.912 216.888 364.777 223.428 336.723 232.11 300.534 239.129 246.419 246.385 230.963 248.457 221.845 249.261 194.03 251.002 165.154 252.81 152.744 254.033 138.291 256.495 111.633 261.036 92.188 268.54 76.7316 280.252 73.0701 283.027 66.4949 289.404 63.6039 292.986 51.4872 307.996 44.8041 327.54 43.0352 353.135 42.4323 361.863 42.7223 396.171 43.4166 398.291 44.2569 400.856 45.4461 401.248 52.3832 401.265 60.7453 401.283 141.414 400.482 155.93 400.239 186.399 399.724 219.029 398.475 234.6 397.222 279.359 393.628 316.377 380.585 346.962 357.633 360.05 347.81 372.566 335.318 383.432 321.235 386.015 317.889 387.56 316.307 390.985 313.504 393.356 311.566 396.863 308.651 398.778 307.027 400.697 305.403 402.32 304.128 402.384 304.194 402.652 304.462 397.057 325.47 395.317 330.727 385.284 361.034 368.273 385.256 344.653 402.874 313.926 425.791 271.343 439.158 221.018 441.677 206.731 442.393 168.849 442.763 94.3693 442.911L19.2267 443.063 10.2307 442.234ZM268.997 201.784C300.209 199.853 329.133 192.979 353.322 181.744 378.518 170.043 395.374 156.05 403.333 140.231 406.585 133.76 407.922 129.521 409.383 121.004 411.665 107.732 412.597 95.857 413.634 66.8523 413.92 58.897 414.255 50.5946 414.378 48.4025L414.608 44.4171 408.123 44.6277C393.053 45.118 382.642 45.8935 372.362 47.2915 338.399 51.9102 311.592 62.9932 289.153 81.6917 272.155 95.8563 262.239 113.835 260.368 133.881 259.534 142.813 259.252 155.651 259.453 175.509 259.567 186.763 259.75 197.418 259.86 199.187L260.06 202.404 261.529 202.279C262.338 202.211 265.698 201.988 268.997 201.784Z" fill="#FFFFFF" transform="matrix(1 0 0 1.00036 -182.318 14)"/><path d="M923.232 401.435C901.624 399.921 883.903 395.942 871.549 389.832 861.216 384.72 855.339 378.603 853.374 370.915 852.682 368.224 852.675 366.372 852.675 207.38L852.675 46.5673 855.762 46.5687C864.507 46.5729 880.362 48.3513 890.776 50.4969 915.248 55.5389 929.328 64.1789 933.519 76.7302L934.344 79.1997 934.44 137.321 934.538 195.441 1003.32 195.441 1072.11 195.441 1072.11 120.949 1072.11 46.4562 1078.01 46.6816C1104.1 47.6775 1127.79 53.334 1140.46 61.587 1148.36 66.7373 1152.72 73.081 1153.59 80.6962 1153.82 82.7183 1153.95 138.73 1153.95 242.803L1153.95 401.819 1151.04 401.819C1147.45 401.819 1139.85 401.279 1133.31 400.56 1107.15 397.685 1088.59 391.229 1079.16 381.718 1076.28 378.811 1074.64 376.306 1073.21 372.626L1072.28 370.245 1072.19 312.124 1072.1 254.003 1003.31 254.003 934.521 254.003 934.521 327.911 934.521 401.819 930.905 401.77C928.915 401.742 925.461 401.59 923.232 401.435Z" fill="#FFFFFF" transform="matrix(1 0 0 1.00036 -182.318 14)"/><path d="M807.166 401.586C775.5 399.413 753.547 392.975 742.297 382.561 737.714 378.317 735.156 373.388 734.479 367.497 734.274 365.723 734.144 303.001 734.144 205.529L734.14 46.4562 740.226 46.6802C754.443 47.2037 770.032 49.4629 781.815 52.7071 797.951 57.1508 809.05 64.1302 813.46 72.6107 816.219 77.9099 815.975 61.5718 815.979 240.862L815.986 401.819 812.37 401.759C810.38 401.724 808.041 401.646 807.166 401.586Z" fill="#FFFFFF" transform="matrix(1 0 0 1.00036 -182.318 14)"/><path d="M1326.64 402.482C1282.05 400.32 1246 387.87 1222.74 366.608 1212.84 357.556 1205.67 348.021 1199.99 336.378 1194.2 324.513 1190.83 312.549 1188.95 297.219 1188.4 292.714 1188.35 286.316 1188.35 224.37 1188.35 153.695 1188.33 154.41 1189.81 144.994 1197.76 94.1347 1232.92 61.3467 1291.71 49.967 1332.89 41.997 1387.41 44.9519 1424.19 57.1472 1467.94 71.6547 1486.08 97.7094 1476.18 131.848 1473.94 139.58 1469.96 148.398 1464.86 156.935L1461.83 161.996 1459.5 157.464C1455.05 148.849 1450.64 142.882 1443.87 136.328 1430.38 123.267 1412.28 114.686 1388.2 109.929 1369.77 106.287 1341.92 104.865 1325.76 106.739 1291.2 110.747 1273.38 129.299 1270.37 164.397 1270.08 167.842 1270 185.16 1270.09 227.015 1270.24 289.529 1270.15 286.397 1272.11 295.808 1277.56 321.936 1293.96 337.093 1321.52 341.471 1329.35 342.714 1335.65 343.023 1348.33 342.786 1354.84 342.664 1362.22 342.404 1364.74 342.207 1388.27 340.376 1405.15 336.172 1420.47 328.325 1436.66 320.033 1449.26 307.982 1458.6 291.843 1460.03 289.367 1461.34 287.112 1461.51 286.833 1462.06 285.895 1468.53 298.6 1471.03 305.51 1474.27 314.5 1475.34 319.76 1475.59 327.963 1475.79 334.744 1475.5 338.024 1474.23 343.081 1470.01 359.852 1456.81 374.112 1436.01 384.342 1429.11 387.736 1425.56 389.186 1417.66 391.832 1392.94 400.112 1359.18 404.059 1326.64 402.482Z" fill="#FFFFFF" transform="matrix(1 0 0 1.00036 -182.318 14)"/><path d="M1129.26 477.138 1129.26 470.612 1137.19 470.612 1145.13 470.612 1145.13 477.138 1145.13 483.665 1137.19 483.665 1129.26 483.665Z" fill="#FFFFFF" transform="matrix(1 0 0 1.00036 -182.318 14)"/><path d="M1673.25 516.121 1673.25 489.662 1680.65 489.662 1688.05 489.662 1688.14 495.042 1688.24 500.422 1689.64 497.776C1692.28 492.812 1696.33 489.793 1701.47 488.974 1705.39 488.35 1705 487.538 1705 496.301L1705 503.999 1701.97 504.405C1695.11 505.322 1690.88 509.083 1688.89 516.029 1688.41 517.687 1688.28 520.308 1688.15 530.32L1688 542.579 1680.62 542.579 1673.25 542.579Z" fill="#FFFFFF" transform="matrix(1 0 0 1.00036 -182.318 14)"/><path d="M1501.09 506.596 1501.09 470.612 1508.5 470.612 1515.91 470.612 1515.91 483.802 1515.91 496.989 1518.46 494.435C1522.54 490.357 1526.1 488.868 1531.7 488.893 1535.12 488.911 1537.9 489.521 1540.4 490.798 1542.66 491.955 1545.69 495.095 1546.9 497.543 1549.01 501.833 1549.06 502.401 1549.06 523.441L1549.07 542.579 1541.86 542.579 1534.65 542.579 1534.52 526.263C1534.37 508.292 1534.31 507.746 1532.14 505.128 1530.53 503.181 1528.38 502.285 1525.32 502.285 1523.75 502.285 1522.24 502.507 1521.37 502.87 1519.34 503.717 1517.42 505.745 1516.61 507.918 1515.94 509.697 1515.91 510.677 1515.91 526.189L1515.91 542.579 1508.5 542.579 1501.09 542.579 1501.09 506.596Z" fill="#FFFFFF" transform="matrix(1 0 0 1.00036 -182.318 14)"/><path d="M1433.71 506.596 1433.71 470.612 1441.12 470.612 1448.52 470.612 1448.52 506.596 1448.52 542.579 1441.12 542.579 1433.71 542.579Z" fill="#FFFFFF" transform="matrix(1 0 0 1.00036 -182.318 14)"/><path d="M1244.62 508.007 1244.62 473.434 1252.02 473.434 1259.43 473.434 1259.43 487.193 1259.43 500.951 1273.54 500.951 1287.66 500.951 1287.66 487.193 1287.66 473.434 1295.24 473.434 1302.83 473.434 1302.83 508.007 1302.83 542.579 1295.24 542.579 1287.66 542.579 1287.66 528.644 1287.66 514.71 1273.54 514.71 1259.43 514.71 1259.43 528.644 1259.43 542.579 1252.02 542.579 1244.62 542.579Z" fill="#FFFFFF" transform="matrix(1 0 0 1.00036 -182.318 14)"/><path d="M1129.61 516.121 1129.61 489.662 1137.19 489.662 1144.78 489.662 1144.78 516.121 1144.78 542.579 1137.19 542.579 1129.61 542.579Z" fill="#FFFFFF" transform="matrix(1 0 0 1.00036 -182.318 14)"/><path d="M961.332 516.121 961.332 489.662 968.917 489.662 976.502 489.662 976.502 493.246 976.502 496.831 978.968 494.326C983.395 489.828 988.697 488.025 994.906 488.9 1000.7 489.718 1005.23 492.816 1007.52 497.511 1009.78 502.165 1009.77 502.059 1009.93 523.265L1010.07 542.579 1002.48 542.579 994.878 542.579 994.776 525.734C994.674 509.506 994.642 508.832 993.933 507.301 993.016 505.322 990.737 503.234 988.962 502.74 987.159 502.239 984.147 502.263 982.365 502.793 981.483 503.054 980.262 503.872 979.264 504.867 976.516 507.601 976.502 507.717 976.502 526.415L976.502 542.579 968.917 542.579 961.332 542.579Z" fill="#FFFFFF" transform="matrix(1 0 0 1.00036 -182.318 14)"/><path d="M771.888 516.121 771.888 489.662 779.296 489.662 786.705 489.662 786.705 493.324 786.705 496.986 789.439 494.259C794.388 489.327 799.846 487.701 806.63 489.136 813.075 490.502 817.379 494.612 819.425 501.35 819.919 502.98 820.018 506.003 820.127 522.912L820.258 542.579 812.828 542.579 805.402 542.579 805.399 528.38C805.395 512.6 805.159 509.249 803.871 506.708 802.816 504.627 802.164 504.017 799.952 503.04 797.482 501.946 793.489 502.186 791.132 503.565 789.167 504.719 787.612 506.984 787.079 509.471 786.846 510.554 786.705 517.168 786.705 526.898L786.705 542.579 779.296 542.579 771.888 542.579 771.888 516.121Z" fill="#FFFFFF" transform="matrix(1 0 0 1.00036 -182.318 14)"/><path d="M742.254 508.007 742.254 473.434 749.839 473.434 757.424 473.434 757.424 508.007 757.424 542.579 749.839 542.579 742.254 542.579Z" fill="#FFFFFF" transform="matrix(1 0 0 1.00036 -182.318 14)"/><path d="M1638.51 533.023C1642.29 532.324 1645.32 530.25 1646.65 527.449 1646.99 526.747 1647.33 525.046 1647.42 523.663L1647.58 521.155 1645.33 520.361C1642.27 519.278 1635.75 518.968 1633 519.772 1630.74 520.432 1628.55 522.136 1627.87 523.755 1627.6 524.393 1627.39 525.773 1627.39 526.817 1627.39 529.847 1629.22 532.003 1632.56 532.903 1634.71 533.481 1635.91 533.506 1638.51 533.023ZM1625.39 542.784C1616.9 540.724 1611.92 533.301 1613.19 524.598 1614.19 517.74 1618.33 513.436 1625.97 511.305 1627.8 510.797 1629.52 510.67 1634.44 510.688 1639.86 510.706 1641.01 510.815 1643.88 511.58L1647.14 512.455 1647.14 510.674C1647.13 508.342 1645.87 505.647 1644.1 504.179 1640.7 501.357 1633.1 501.011 1625.29 503.318 1623.63 503.805 1622.03 504.278 1621.74 504.362 1621.01 504.574 1617.29 493.539 1617.95 493.133 1619.2 492.361 1626.34 490.304 1629.52 489.803 1634.04 489.087 1643.73 489.285 1646.79 490.152 1652.43 491.75 1656.8 495.183 1658.93 499.678 1661.27 504.602 1661.37 505.52 1661.53 525.028L1661.67 542.579 1654.4 542.579 1647.14 542.579 1647.14 539.757 1647.14 536.938 1644.94 538.716C1640.78 542.068 1637 543.303 1631.04 543.257 1628.93 543.239 1626.39 543.027 1625.39 542.784Z" fill="#FFFFFF" transform="matrix(1 0 0 1.00036 -182.318 14)"/><path d="M1473.75 542.795C1468.74 541.578 1465.75 538.565 1464.36 533.333 1464.1 532.37 1463.9 526.482 1463.79 517.091L1463.63 502.362 1460.49 502.362 1457.34 502.362 1457.34 496.012 1457.34 489.662 1460.52 489.662 1463.69 489.662 1463.69 482.959 1463.69 476.256 1471.1 476.256 1478.51 476.256 1478.51 482.959 1478.51 489.662 1484.86 489.662 1491.21 489.662 1491.21 496.012 1491.21 502.362 1484.86 502.362 1478.51 502.362 1478.51 514.092C1478.51 521.003 1478.67 526.355 1478.88 527.124 1479.08 527.837 1479.74 528.849 1480.36 529.368 1481.43 530.264 1481.64 530.303 1484.49 530.161 1486.54 530.056 1488.05 529.766 1489.18 529.258L1490.86 528.507 1490.86 534.504 1490.86 540.501 1488.83 541.401C1487.72 541.895 1485.77 542.516 1484.51 542.784 1481.72 543.377 1476.16 543.384 1473.75 542.795Z" fill="#FFFFFF" transform="matrix(1 0 0 1.00036 -182.318 14)"/><path d="M1400.76 532.303C1404.73 530.818 1406.83 527.995 1407.15 523.688L1407.35 521.12 1404.92 520.34C1401.55 519.264 1395.43 518.989 1392.67 519.793 1390.51 520.421 1388.48 521.956 1387.62 523.621 1386.91 524.997 1386.9 528.045 1387.61 529.414 1388.6 531.326 1390.22 532.402 1393.31 533.188 1394.67 533.534 1398.78 533.044 1400.76 532.303ZM1384.89 542.724C1377.38 540.907 1372.68 534.829 1372.68 526.937 1372.68 520.665 1375.76 515.637 1381.26 512.96 1385.24 511.023 1387.36 510.649 1394.2 510.684 1400.17 510.713 1402.97 511.118 1406.28 512.424 1406.81 512.635 1406.9 512.452 1406.9 511.086 1406.9 509.146 1406.12 506.853 1404.93 505.29 1402.08 501.561 1393.85 500.718 1385.18 503.276 1383.45 503.787 1381.76 504.285 1381.43 504.377 1380.94 504.521 1380.55 503.646 1379.17 499.311 1378.26 496.428 1377.45 493.892 1377.36 493.673 1377.19 493.2 1382.09 491.359 1386.43 490.262 1389.02 489.613 1390.46 489.507 1396.84 489.496 1403.64 489.486 1404.47 489.553 1406.9 490.311 1413.97 492.52 1418.15 496.714 1420.2 503.657 1420.73 505.46 1420.82 507.989 1420.92 524.146L1421.04 542.579 1413.97 542.579 1406.9 542.579 1406.9 539.757C1406.9 538.205 1406.79 536.935 1406.67 536.935 1406.54 536.935 1405.69 537.637 1404.77 538.494 1402.74 540.392 1399.54 542.054 1396.58 542.752 1393.81 543.408 1387.65 543.391 1384.89 542.724Z" fill="#FFFFFF" transform="matrix(1 0 0 1.00036 -182.318 14)"/><path d="M1746.33 510.843C1745.92 506.733 1742.45 502.225 1738.86 501.159 1732.38 499.233 1726.5 502.574 1724.38 509.393 1724 510.607 1723.78 511.746 1723.9 511.926 1724.01 512.117 1728.73 512.212 1735.27 512.155L1746.45 512.064ZM1731.51 543.267C1724.68 542.043 1718.35 538.293 1714.59 533.245 1707.12 523.198 1707.54 507.95 1715.56 497.952 1718.73 494.001 1724.1 490.646 1729.16 489.468 1732.39 488.713 1738.6 488.717 1741.86 489.471 1750.2 491.401 1756.47 497.455 1759.26 506.243 1760.58 510.402 1761.33 516.544 1760.89 519.5L1760.66 521.06 1742.35 521.06C1726.52 521.06 1724.05 521.13 1724.05 521.575 1724.05 522.891 1725.65 526.133 1727.08 527.727 1729.88 530.839 1734.26 532.239 1739.25 531.615 1742.41 531.22 1744.99 530.183 1747.5 528.292 1748.66 527.42 1749.74 526.704 1749.9 526.704 1750.05 526.704 1752 528.32 1754.21 530.292L1758.24 533.88 1757.13 535.143C1754.17 538.533 1749.17 541.546 1744.51 542.742 1741.79 543.44 1734.2 543.747 1731.51 543.267Z" fill="#FFFFFF" transform="matrix(1 0 0 1.00036 -182.318 14)"/><path d="M1580.47 543.109C1567.39 540.466 1558.59 529.682 1558.59 516.297 1558.59 503.177 1567.13 492.371 1579.76 489.493 1583.17 488.72 1589.56 488.713 1593.34 489.482 1597.47 490.322 1602.03 492.639 1604.92 495.37L1607.28 497.6 1602.75 502.345 1598.23 507.086 1596.14 505.375C1592.34 502.267 1588.7 501.152 1584.25 501.734 1577.44 502.627 1572.42 509.94 1573.21 517.814 1574.03 525.932 1579.95 531.326 1587.52 530.828 1590.66 530.62 1593.45 529.625 1595.63 527.935 1599.19 525.187 1598.3 524.961 1603.16 529.84L1607.45 534.148 1605.14 536.36C1601.2 540.113 1597.32 542.085 1591.81 543.14 1588.65 543.747 1583.55 543.733 1580.47 543.109Z" fill="#FFFFFF" transform="matrix(1 0 0 1.00036 -182.318 14)"/><path d="M1351.24 512.042C1351.56 511.721 1350.64 508.317 1349.77 506.596 1345.98 499.124 1335.54 498.534 1331.04 505.544 1329.86 507.396 1328.44 511.376 1328.78 511.919 1328.99 512.261 1350.9 512.381 1351.24 512.042ZM1336.4 543.243C1329.45 542.089 1323.02 538.201 1319.21 532.864 1315.95 528.292 1314.53 523.977 1314.24 517.708 1313.99 512.385 1314.8 508.07 1316.85 503.727 1321.79 493.267 1331.57 487.824 1343.31 489.002 1353.92 490.068 1361.27 496.411 1364.39 507.185 1365.32 510.399 1365.97 516.41 1365.7 519.384L1365.55 521.06 1347.24 521.06 1328.93 521.06 1328.93 521.885C1328.93 523.381 1331.02 526.965 1332.85 528.613 1335.33 530.842 1337.83 531.707 1341.81 531.7 1346.46 531.693 1351.14 529.967 1353.45 527.406 1353.8 527.022 1354.29 526.704 1354.53 526.704 1354.78 526.704 1356.82 528.323 1359.07 530.303L1363.17 533.901 1361.13 535.961C1357.38 539.757 1352.78 542.138 1347.28 543.133 1344.32 543.669 1339.26 543.719 1336.4 543.243Z" fill="#FFFFFF" transform="matrix(1 0 0 1.00036 -182.318 14)"/><path d="M1182.9 532.116C1186.64 530.43 1188.49 527.699 1188.62 523.667L1188.7 521.236 1186.23 520.375C1184.14 519.648 1183.08 519.511 1179.35 519.493 1175.47 519.476 1174.73 519.571 1173.19 520.28 1172.23 520.725 1171.14 521.359 1170.77 521.691 1168.94 523.349 1168.24 526.87 1169.26 529.315 1169.79 530.585 1171.48 532.024 1173.18 532.649 1174.94 533.298 1181.02 532.966 1182.9 532.116ZM1168.6 543.285C1162.15 542.121 1157.28 538.48 1155.29 533.34 1154.4 531.033 1154.05 525.836 1154.61 523.222 1155.97 516.907 1161.19 512.395 1168.79 510.959 1172.99 510.166 1181.68 510.448 1185.26 511.492 1186.66 511.905 1187.97 512.24 1188.17 512.24 1188.68 512.24 1188.61 510.166 1188.04 508.275 1187.34 505.936 1185.91 504.281 1183.64 503.167 1179.92 501.336 1171.6 501.667 1165.01 503.907L1162.55 504.743 1160.68 499.102C1158.59 492.791 1158.51 493.324 1161.71 492.096 1167.77 489.778 1176.48 488.614 1182.93 489.263 1193.6 490.339 1199.47 494.876 1202.01 504.017 1202.74 506.645 1202.78 507.597 1202.9 524.676L1203.03 542.579 1195.78 542.579 1188.52 542.579 1188.52 539.729 1188.52 536.882 1186.69 538.48C1184.37 540.512 1181.57 542.004 1178.67 542.752 1175.93 543.461 1171.01 543.719 1168.6 543.285Z" fill="#FFFFFF" transform="matrix(1 0 0 1.00036 -182.318 14)"/><path d="M1094.67 543.274C1089.49 542.551 1082.89 539.997 1078.83 537.154 1077.96 536.547 1077.1 535.951 1076.92 535.824 1076.57 535.584 1082.55 525.999 1083.05 525.999 1083.2 525.999 1084.49 526.715 1085.91 527.593 1090.84 530.627 1096.49 532.26 1100.86 531.908 1104.25 531.636 1105.97 530.281 1105.97 527.9 1105.97 525.635 1104.24 524.549 1097.13 522.351 1088.33 519.631 1085.31 518.132 1082.72 515.186 1078.96 510.924 1078.18 504.433 1080.72 498.679 1082.66 494.298 1087.48 490.724 1093.15 489.464 1099.87 487.969 1109.72 489.803 1116.3 493.779L1118.32 495.007 1117.03 497.363C1114.01 502.831 1112.96 504.669 1112.73 504.916 1112.58 505.061 1111.22 504.546 1109.68 503.773 1102.58 500.207 1096.17 499.438 1093.75 501.858 1092.54 503.061 1092.61 505.114 1093.89 506.313 1095.23 507.566 1096.17 507.989 1102.55 510.25 1112.24 513.679 1116.24 516.322 1118.25 520.612 1119.03 522.287 1119.22 523.254 1119.32 526.09 1119.7 536.695 1112.99 542.886 1100.5 543.44 1098.56 543.525 1095.94 543.451 1094.67 543.274Z" fill="#FFFFFF" transform="matrix(1 0 0 1.00036 -182.318 14)"/><path d="M1056.23 511.348C1056.23 510.187 1054.71 506.384 1053.67 504.927 1050.73 500.849 1045.04 499.547 1040.19 501.851 1037.5 503.128 1034.82 506.98 1033.87 510.917L1033.64 511.887 1044.93 511.887C1054.84 511.887 1056.23 511.82 1056.23 511.348ZM1040.09 543.105C1033.45 541.588 1027.24 537.577 1023.84 532.613 1017.85 523.878 1017.41 511.312 1022.77 501.657 1024.5 498.531 1028.93 493.962 1031.95 492.195 1037.67 488.84 1045.52 487.803 1052.26 489.507 1061.12 491.75 1067.76 499.032 1070.01 508.987 1070.63 511.725 1071.08 517.32 1070.85 519.384L1070.62 521.412 1052.31 521.412C1040.82 521.412 1034.01 521.539 1034.01 521.751 1034.01 522.771 1035.59 526.076 1036.7 527.378 1039.41 530.542 1042.83 531.816 1047.9 531.558 1051.87 531.357 1054.38 530.447 1057.51 528.08L1059.79 526.351 1063.99 530.098 1068.19 533.841 1067.41 534.889C1065.26 537.803 1059.18 541.567 1054.64 542.791 1051.69 543.588 1043.02 543.775 1040.09 543.105Z" fill="#FFFFFF" transform="matrix(1 0 0 1.00036 -182.318 14)"/><path d="M928.675 529.858C931.483 528.807 933.893 526.478 935.47 523.286 936.641 520.915 936.8 520.269 936.93 517.338 937.107 513.256 936.263 510.134 934.203 507.259 929.261 500.358 918.959 499.706 913.195 505.932 910.845 508.469 909.822 511.009 909.565 514.925 909.343 518.333 909.84 520.784 911.329 523.617 913.093 526.976 916.825 529.805 920.533 530.592 922.639 531.04 926.431 530.698 928.675 529.858ZM916.871 543.112C906.764 541.098 898.756 533.834 895.665 523.882 894.596 520.442 894.487 513.023 895.454 509.418 898.036 499.78 905.635 492.329 915.647 489.62 919.668 488.533 927.144 488.533 931.169 489.62 940.698 492.195 947.852 498.975 950.752 508.183 951.803 511.527 952.089 518.107 951.334 521.652 949.02 532.536 940.603 540.801 929.508 543.08 926.259 543.747 920.134 543.765 916.871 543.112Z" fill="#FFFFFF" transform="matrix(1 0 0 1.00036 -182.318 14)"/><path d="M862.384 529.745C867.301 527.494 870.314 522.319 870.314 516.121 870.314 509.866 867.319 504.775 862.264 502.429 859.346 501.078 855.487 501.11 852.418 502.51 847.567 504.722 844.575 509.841 844.565 515.958 844.554 523.169 848.343 528.757 854.414 530.475 856.651 531.11 860.091 530.793 862.384 529.745ZM849.151 543.119C845.849 542.495 840.818 540.029 838.296 537.803 831.977 532.232 828.601 522.234 829.723 512.417 830.242 507.894 830.933 505.47 832.789 501.692 834.08 499.057 834.969 497.815 837.107 495.659 841.845 490.883 846.854 488.794 853.557 488.805 859.6 488.812 863.749 490.382 867.834 494.213L869.961 496.203 869.961 483.407 869.961 470.612 877.546 470.612 885.131 470.612 885.131 506.596 885.131 542.579 877.546 542.579 869.961 542.579 869.961 538.985 869.961 535.393 867.675 537.662C866.416 538.91 864.631 540.371 863.707 540.907 859.777 543.183 854.072 544.05 849.151 543.119Z" fill="#FFFFFF" transform="matrix(1 0 0 1.00036 -182.318 14)"/><path d="M1178.29 566.039 1178.29 559.513 1186.05 559.513 1193.82 559.513 1193.82 566.039 1193.82 572.566 1186.05 572.566 1178.29 572.566Z" fill="#FFFFFF" transform="matrix(1 0 0 1.00036 -182.318 14)"/><path d="M1270.37 605.022 1270.37 578.563 1277.95 578.563 1285.54 578.563 1285.54 582.236 1285.54 585.912 1287.71 583.65C1292.44 578.722 1297.64 576.887 1304.11 577.861 1310.03 578.754 1314.36 581.816 1316.72 586.787 1318.8 591.154 1318.8 591.172 1318.95 612.166L1319.1 631.481 1311.49 631.481 1303.88 631.481 1303.88 615.316C1303.88 596.604 1303.86 596.435 1301.11 593.683 1299.15 591.722 1297.3 591.115 1294.01 591.348 1290.23 591.616 1288.05 593.084 1286.53 596.382 1285.72 598.128 1285.72 598.27 1285.61 614.812L1285.51 631.481 1277.94 631.481 1270.37 631.481Z" fill="#FFFFFF" transform="matrix(1 0 0 1.00036 -182.318 14)"/><path d="M1178.65 605.022 1178.65 578.563 1186.05 578.563 1193.46 578.563 1193.46 605.022 1193.46 631.481 1186.05 631.481 1178.65 631.481Z" fill="#FFFFFF" transform="matrix(1 0 0 1.00036 -182.318 14)"/><path d="M1044.24 605.022 1044.24 578.563 1051.63 578.563 1059.04 578.563 1059.13 583.767 1059.23 588.97 1060.41 586.698C1061.87 583.911 1064.81 580.761 1067.16 579.484 1068.95 578.507 1072.79 577.522 1074.84 577.512L1075.99 577.505 1075.99 585.442 1075.99 593.38 1074.13 593.387C1068.63 593.415 1063.79 596.319 1061.41 601.025 1059.46 604.867 1059.32 606.006 1059.15 619.221L1058.99 631.481 1051.61 631.481 1044.24 631.481Z" fill="#FFFFFF" transform="matrix(1 0 0 1.00036 -182.318 14)"/><path d="M874.548 605.022 874.548 578.563 882.132 578.563 889.717 578.563 889.724 583.767 889.735 588.97 890.931 586.751C894.021 581.015 898.142 578.193 904.259 577.625L906.651 577.403 906.651 585.393 906.651 593.38 904.785 593.38C900.668 593.38 896.036 595.387 893.742 598.167 893.093 598.958 892.151 600.492 891.654 601.579 889.954 605.294 889.731 607.41 889.724 619.927L889.717 631.481 882.132 631.481 874.548 631.481Z" fill="#FFFFFF" transform="matrix(1 0 0 1.00036 -182.318 14)"/><path d="M1237.74 618.756C1240.65 617.662 1243.83 614.491 1244.97 611.548 1246.07 608.691 1246.34 603.466 1245.53 600.676 1244.73 597.903 1242.36 594.601 1240.03 592.992 1234.85 589.415 1227.54 589.866 1223.01 594.04 1217.37 599.236 1217 609.439 1222.25 615.242 1226.08 619.49 1232.13 620.858 1237.74 618.756ZM1225.74 632.02C1217.42 630.211 1210.2 624.739 1206.69 617.591 1204.38 612.896 1203.88 610.652 1203.89 605.198 1203.91 600.168 1204.4 597.744 1206.18 593.807 1208.99 587.616 1214.62 582.292 1220.99 579.791 1228.93 576.683 1238.33 577.022 1245.83 580.69 1251.35 583.389 1255.44 587.52 1258.19 593.204 1260.12 597.187 1260.84 600.443 1260.84 605.092 1260.84 612.646 1258.31 618.854 1253.09 624.107 1248.9 628.334 1244.39 630.796 1238.63 632.006 1235.55 632.655 1228.69 632.662 1225.74 632.02Z" fill="#FFFFFF" transform="matrix(1 0 0 1.00036 -182.318 14)"/><path d="M1153.95 632.317C1146.74 631.597 1143.18 628.842 1141.34 622.541 1140.92 621.095 1140.78 617.69 1140.64 605.992L1140.47 591.263 1137.51 591.263 1134.55 591.263 1134.55 584.913 1134.55 578.563 1137.55 578.563 1140.55 578.563 1140.55 571.86 1140.55 565.157 1148.13 565.157 1155.72 565.157 1155.72 571.86 1155.72 578.563 1161.89 578.563 1168.06 578.563 1168.06 584.913 1168.06 591.263 1161.89 591.263 1155.72 591.263 1155.72 603.445C1155.72 616.974 1155.8 617.553 1157.87 618.625 1159.42 619.426 1163.77 619.154 1166.12 618.11 1167.04 617.704 1167.86 617.369 1167.93 617.369 1168 617.369 1168.06 620.075 1168.06 623.388L1168.06 629.403 1166.21 630.249C1162.89 631.77 1157.54 632.673 1153.95 632.317Z" fill="#FFFFFF" transform="matrix(1 0 0 1.00036 -182.318 14)"/><path d="M1106.64 621.158C1110.58 619.705 1112.74 616.727 1112.81 612.621L1112.85 610.137 1110.38 609.312C1105.38 607.636 1098.93 607.996 1095.7 610.127 1094.16 611.143 1092.92 613.531 1092.93 615.454 1092.94 617.359 1094.02 619.567 1095.42 620.569 1097.88 622.315 1102.79 622.573 1106.64 621.158ZM1092.66 632.172C1083.66 630.556 1078.46 624.57 1078.46 615.838 1078.46 608.37 1082.55 603.064 1090.25 600.559 1095.54 598.834 1105.79 599.035 1111.28 600.972L1112.76 601.494 1112.61 599.458C1112.32 595.331 1110.05 592.558 1106.01 591.383 1102.15 590.261 1093.09 591.214 1087.59 593.324L1086.68 593.676 1084.98 588.325C1084.05 585.382 1083.22 582.793 1083.14 582.571 1083.01 582.2 1086.11 580.832 1089.06 579.957 1094.15 578.45 1101.51 577.748 1107.13 578.235 1115.81 578.99 1121.59 582.419 1124.65 588.635 1126.85 593.098 1126.89 593.556 1127.05 613.4L1127.19 631.481 1119.93 631.481 1112.68 631.481 1112.68 628.627 1112.68 625.769 1110.84 627.424C1108.79 629.265 1106.07 630.754 1103.15 631.632 1100.79 632.338 1095.19 632.627 1092.66 632.172Z" fill="#FFFFFF" transform="matrix(1 0 0 1.00036 -182.318 14)"/><path d="M1009.03 619.444C1012.59 618.689 1015.34 616.875 1017.18 614.074 1022.24 606.369 1019.69 595.751 1011.85 591.891 1009.64 590.801 1009.29 590.734 1005.79 590.748 1002.54 590.762 1001.83 590.879 1000.05 591.697 994.564 594.23 991.245 600.937 992.303 607.343 993.725 615.909 1000.97 621.151 1009.03 619.444ZM998.124 631.685C988.137 629.039 980.813 621.881 978.227 612.233 977.19 608.373 977.186 602.101 978.22 598.217 980.774 588.603 988.412 581.209 998.551 578.531 1001.93 577.639 1008.99 577.455 1012.31 578.179 1018.06 579.424 1023.49 582.458 1027.3 586.557 1030.07 589.531 1031.69 592.17 1032.99 595.842 1038.2 610.589 1030.38 626.252 1015.32 631.188 1012.28 632.183 1011.44 632.302 1006.66 632.419 1001.93 632.532 1001.03 632.454 998.124 631.685Z" fill="#FFFFFF" transform="matrix(1 0 0 1.00036 -182.318 14)"/><path d="M841.827 618.787C846.216 617.136 849.652 612.529 850.146 607.629 850.64 602.739 849.521 598.555 846.858 595.303 842.166 589.577 832.69 588.97 827.187 594.04 822.583 598.284 821.359 606.377 824.414 612.353 826.054 615.559 829.885 618.565 833.491 619.468 835.523 619.98 839.523 619.652 841.827 618.787ZM829.921 632.017C819.665 629.755 811.661 622.372 808.877 612.607 807.826 608.927 807.745 601.843 808.711 598.34 811.52 588.159 819.203 580.909 829.921 578.334 833.614 577.445 840.01 577.526 844.032 578.51 854.245 581.015 861.992 588.667 864.366 598.594 865.301 602.51 865.143 609.555 864.042 613.002 860.891 622.859 853.053 629.851 842.727 632.024 839.717 632.659 832.81 632.652 829.921 632.017Z" fill="#FFFFFF" transform="matrix(1 0 0 1.00036 -182.318 14)"/><path d="M767.415 632.172C754.143 629.805 743.281 619.948 739.82 607.131 736.412 594.512 739.485 581.481 748.015 572.354 754.524 565.39 762.726 561.785 772.985 561.376 782.927 560.977 790.702 563.15 797.465 568.223 801.247 571.06 801.765 571.659 801.13 572.471 800.029 573.878 792.219 582.797 792.088 582.797 792.011 582.797 790.818 581.915 789.439 580.839 786.62 578.63 782.172 576.379 779.356 575.734 776.629 575.109 771.683 575.194 769.214 575.907 764.289 577.328 759.438 581.177 757.191 585.442 755.127 589.362 754.432 592.332 754.464 597.084 754.489 600.669 754.633 601.752 755.424 604.14 757.66 610.899 761.904 615.44 768.029 617.623 770.3 618.435 771.197 618.558 774.71 618.548 778.136 618.54 779.183 618.396 781.448 617.62 784.659 616.523 787.544 614.865 790.409 612.466L792.526 610.698 797.394 615.531 802.263 620.368 799.754 622.77C796.858 625.547 792.448 628.521 789.224 629.875 784.743 631.756 782.062 632.239 775.416 632.373 772.022 632.444 768.42 632.352 767.415 632.172Z" fill="#FFFFFF" transform="matrix(1 0 0 1.00036 -182.318 14)"/><path d="M945.281 619.359C947.789 618.692 949.186 617.891 950.989 616.089 954.132 612.945 955.691 607.699 954.993 602.602 953.084 588.653 936.225 585.792 930.615 598.467 929.656 600.64 929.229 604.493 929.61 607.541 930.672 615.983 937.794 621.356 945.281 619.359ZM914.765 612.959 914.765 578.563 922.173 578.563 929.582 578.563 929.582 582.338 929.582 586.113 931.339 584.141C933.561 581.65 936.394 579.763 939.601 578.634 941.636 577.918 942.797 577.752 945.81 577.738 952.724 577.702 957.586 579.696 962.401 584.532 965.834 587.982 967.855 591.531 969.153 596.379 970.205 600.298 970.289 609.231 969.316 613.136 968.444 616.621 966.423 620.901 964.366 623.617 959.924 629.477 952.262 632.892 944.663 632.394 939.347 632.049 935.374 630.288 931.61 626.605L929.582 624.622 929.582 635.989 929.582 647.356 922.173 647.356 914.765 647.356Z" fill="#FFFFFF" transform="matrix(1 0 0 1.00036 -182.318 14)"/><path d="M239.539 633.943C269.167 632.641 291.044 628.581 311.154 620.657 329.22 613.538 345.628 603.089 357.549 591.112 370.792 577.808 378.253 562.381 379.922 544.872 380.994 533.594 381.238 503.53 380.426 481.954L380.211 476.189 376.99 476.411C357.524 477.773 346.972 479.075 333.732 481.749 324.248 483.668 317.05 485.58 307.979 488.6 283.996 496.577 263.068 508.18 250.268 520.597 239.055 531.47 233.234 542.392 230.742 557.22 228.453 570.837 227.418 583.767 226.491 610.314 225.828 629.283 225.76 630.955 225.582 632.627L225.404 634.303 228.503 634.299C230.207 634.296 235.174 634.137 239.539 633.943ZM197.558 678.489 185.034 678.394 185.004 659.964C184.985 648.361 184.754 636.896 184.38 629.011 182.784 595.303 183.309 575.79 186.3 557.756 191.075 528.969 202.351 506.056 220.854 487.542 236.062 472.326 254.992 461.432 278.186 454.55 304.741 446.665 333.602 440.982 381.887 434.123 406.67 430.603 413.034 429.968 442.389 428.101 484.448 425.427 499.67 423.586 518.414 418.894 566.022 406.98 590.318 381.132 596.181 336.162 597.377 327.001 597.61 321.539 597.61 302.864 597.61 281.242 597.391 279.221 594.964 277.996 593.645 277.33 592.798 277.329 531.29 277.902 463.027 278.538 432.497 279.384 406.582 281.356 365.553 284.478 330.491 295.741 301.537 315.102 284.785 326.303 270.274 339.946 257.229 356.758 254.698 360.022 252.454 362.512 251.068 363.599 249.869 364.537 246.445 367.335 243.458 369.811 240.471 372.291 237.979 374.27 237.919 374.21 237.622 373.914 243.366 352.807 245.334 346.962 255.809 315.856 273.475 291.63 298.916 273.484 328.92 252.084 372.252 239.19 421.222 237.09 444.238 236.102 611.337 235.18 621.779 235.982 633.999 236.921 638.547 237.317 638.674 237.454 638.998 237.806 639.771 286.889 639.764 306.568 639.746 342.129 638.261 355.809 632.673 371.879 627.106 387.881 618.17 401.936 605.032 415.348 577.97 442.978 540.191 461.598 496.188 468.992 480.278 471.663 467.137 472.785 443.977 473.445 427.608 473.907 425.466 474.327 423.974 477.336 422.891 479.527 422.587 484.624 422.252 506.419 422.069 518.255 421.843 528.493 421.755 529.174 421.663 529.855 421.332 532.948 421.021 536.053 419.377 552.39 414.974 570.213 409.185 583.989 399.022 608.162 382.79 627.995 361.14 642.692 337.767 658.553 310.495 668.022 272.053 673.617 251.901 676.549 225.166 678.88 214.139 678.665 211.908 678.623 204.446 678.542 197.558 678.489Z" fill="#FFFFFF" transform="matrix(1 0 0 1.00036 -182.318 14)"/></g></g></g></svg>