<svg width="426" height="680" xmlns="http://www.w3.org/2000/svg" xmlns:xlink="http://www.w3.org/1999/xlink" overflow="hidden"><defs><clipPath id="clip0"><rect x="-1" y="20" width="426" height="680"/></clipPath><clipPath id="clip1"><rect x="0" y="21" width="424" height="678"/></clipPath><clipPath id="clip2"><rect x="0" y="21" width="424" height="679"/></clipPath><clipPath id="clip3"><rect x="-218" y="21" width="1762" height="679"/></clipPath></defs><g clip-path="url(#clip0)" transform="translate(1 -20)"><g clip-path="url(#clip1)"><g clip-path="url(#clip2)"><g clip-path="url(#clip3)"><path d="M10.2193 441.743C5.27705 441.289 1.21757 440.897 1.19826 440.88 1.17895 440.859 1.07116 434.537 0.958729 426.833 0.846298 419.13 0.552873 402.952 0.30667 390.883-0.516302 350.543 0.948759 328.251 5.45096 312.609 9.54331 298.392 16.6708 284.79 26.4306 272.574 30.598 267.358 40.7561 257.038 45.987 252.707 73.6856 229.77 106.118 215.584 145.537 209.161 160.383 206.742 173.227 205.642 193.11 205.089 211.709 204.571 214.517 204.128 215.757 201.516 216.933 199.038 217.132 195.806 217.429 174.433 217.728 152.943 217.904 149.44 219.22 138.842 225.326 89.644 248.709 52.613 287.848 30.1574 313.585 15.3908 342.613 7.30446 386.573 2.65599 409.658 0.214768 415.673-0.0801076 436.612 0.202496L454.76 0.447427 454.782 18.8123C454.799 30.4888 455.025 41.8616 455.405 50.0395 457.002 84.2337 456.424 104.175 453.319 121.927 448.34 150.416 437.039 173.017 418.58 191.4 404.312 205.61 385.484 216.647 364.372 223.18 336.35 231.852 300.201 238.864 246.145 246.111 230.707 248.181 221.599 248.984 193.815 250.723 164.971 252.529 152.575 253.751 138.137 256.21 111.509 260.746 92.0857 268.242 76.6464 279.941 72.989 282.713 66.4211 289.083 63.5333 292.661 51.43 307.654 44.7543 327.176 42.9875 352.743 42.3852 361.461 42.6749 395.731 43.3684 397.849 44.2078 400.411 45.3957 400.802 52.3251 400.82 60.6778 400.838 141.257 400.038 155.757 399.794 186.192 399.28 218.786 398.033 234.34 396.782 279.049 393.191 316.026 380.163 346.576 357.236 359.65 347.424 372.153 334.946 383.007 320.878 385.586 317.536 387.13 315.956 390.551 313.156 392.919 311.22 396.422 308.309 398.336 306.686 400.253 305.064 401.874 303.79 401.937 303.856 402.205 304.124 396.616 325.109 394.879 330.36 384.857 360.633 367.864 384.828 344.27 402.427 313.578 425.318 271.041 438.67 220.773 441.186 206.501 441.902 168.662 442.272 94.2646 442.42L19.2053 442.571 10.2194 441.743ZM268.698 201.56C299.876 199.631 328.768 192.765 352.93 181.543 378.098 169.854 394.935 155.877 402.885 140.075 406.134 133.611 407.47 129.377 408.928 120.87 411.208 107.612 412.139 95.7506 413.175 66.7781 413.46 58.8317 413.795 50.5385 413.918 48.3487L414.147 44.3678 407.67 44.5781C392.616 45.068 382.217 45.8425 371.949 47.239 338.024 51.8526 311.246 62.9233 288.832 81.601 271.853 95.7499 261.948 113.709 260.079 133.732 259.246 142.655 258.964 155.479 259.165 175.314 259.279 186.556 259.462 197.199 259.571 198.966L259.771 202.179 261.239 202.055C262.047 201.986 265.403 201.764 268.698 201.56Z" fill="#004B8C" transform="matrix(1.00111 0 0 1 -217.318 21)"/><path d="M922.207 400.989C900.623 399.477 882.922 395.502 870.582 389.399 860.26 384.293 854.389 378.182 852.426 370.504 851.736 367.815 851.729 365.965 851.729 207.149L851.729 46.5156 854.812 46.517C863.548 46.5212 879.384 48.2976 889.787 50.4409 914.232 55.4772 928.296 64.1077 932.483 76.645L933.307 79.1117 933.402 137.168 933.501 195.225 1002.21 195.225 1070.92 195.225 1070.92 120.815 1070.92 46.4046 1076.82 46.6298C1102.87 47.6246 1126.54 53.2748 1139.19 61.5186 1147.09 66.6632 1151.44 72.9999 1152.31 80.6066 1152.54 82.6265 1152.67 138.576 1152.67 242.533L1152.67 401.373 1149.76 401.373C1146.17 401.373 1138.59 400.834 1132.06 400.115 1105.92 397.243 1087.39 390.794 1077.96 381.294 1075.08 378.39 1073.45 375.888 1072.02 372.213L1071.09 369.834 1071 311.778 1070.91 253.721 1002.2 253.721 933.483 253.721 933.483 327.547 933.483 401.373 929.871 401.324C927.884 401.296 924.434 401.144 922.207 400.989Z" fill="#004B8C" transform="matrix(1.00111 0 0 1 -217.318 21)"/><path d="M806.27 401.141C774.64 398.97 752.71 392.539 741.473 382.136 736.895 377.897 734.34 372.974 733.664 367.089 733.459 365.317 733.329 302.664 733.329 205.3L733.325 46.4046 739.404 46.6284C753.605 47.1513 769.178 49.408 780.947 52.6486 797.066 57.0873 808.152 64.059 812.557 72.5301 815.313 77.8234 815.069 61.5035 815.073 240.595L815.08 401.373 811.468 401.313C809.481 401.278 807.144 401.201 806.27 401.141Z" fill="#004B8C" transform="matrix(1.00111 0 0 1 -217.318 21)"/><path d="M1325.17 402.036C1280.63 399.876 1244.62 387.44 1221.39 366.201 1211.5 357.159 1204.33 347.635 1198.65 336.005 1192.87 324.153 1189.51 312.202 1187.63 296.889 1187.08 292.389 1187.03 285.999 1187.03 224.121 1187.03 153.524 1187.01 154.239 1188.49 144.833 1196.43 94.0302 1231.55 61.2787 1290.28 49.9116 1331.41 41.9504 1385.87 44.902 1422.61 57.0838 1466.31 71.5752 1484.43 97.601 1474.54 131.702 1472.31 139.426 1468.33 148.234 1463.23 156.76L1460.21 161.816 1457.88 157.289C1453.44 148.684 1449.03 142.723 1442.27 136.177 1428.79 123.13 1410.71 114.559 1386.66 109.807 1368.25 106.169 1340.43 104.748 1324.28 106.62 1289.77 110.624 1271.97 129.156 1268.96 164.214 1268.67 167.656 1268.59 184.955 1268.68 226.764 1268.83 289.208 1268.74 286.079 1270.7 295.48 1276.14 321.579 1292.52 336.719 1320.06 341.092 1327.88 342.334 1334.17 342.643 1346.84 342.405 1353.33 342.283 1360.7 342.024 1363.22 341.827 1386.73 339.999 1403.59 335.799 1418.89 327.96 1435.07 319.678 1447.65 307.64 1456.98 291.519 1458.41 289.046 1459.72 286.794 1459.88 286.514 1460.43 285.577 1466.9 298.269 1469.4 305.17 1472.63 314.15 1473.7 319.405 1473.95 327.599 1474.15 334.372 1473.86 337.649 1472.59 342.7 1468.38 359.453 1455.19 373.696 1434.42 383.916 1427.52 387.306 1423.98 388.754 1416.08 391.397 1391.39 399.668 1357.67 403.611 1325.17 402.036Z" fill="#004B8C" transform="matrix(1.00111 0 0 1 -217.318 21)"/><path d="M1128 476.609 1128 470.089 1135.93 470.089 1143.86 470.089 1143.86 476.609 1143.86 483.128 1135.93 483.128 1128 483.128Z" fill="#004B8C" transform="matrix(1.00111 0 0 1 -217.318 21)"/><path d="M1671.39 515.548 1671.39 489.118 1678.78 489.118 1686.17 489.118 1686.27 494.492 1686.37 499.866 1687.77 497.224C1690.4 492.265 1694.45 489.249 1699.58 488.431 1703.5 487.808 1703.1 486.997 1703.1 495.75L1703.1 503.44 1700.08 503.845C1693.23 504.761 1689 508.518 1687.01 515.456 1686.54 517.112 1686.4 519.731 1686.28 529.732L1686.13 541.977 1678.76 541.977 1671.39 541.977Z" fill="#8DC63F" transform="matrix(1.00111 0 0 1 -217.318 21)"/><path d="M1499.42 506.033 1499.42 470.089 1506.82 470.089 1514.22 470.089 1514.22 483.265 1514.22 496.438 1516.78 493.886C1520.85 489.813 1524.41 488.326 1530 488.35 1533.41 488.368 1536.19 488.978 1538.69 490.253 1540.95 491.409 1543.98 494.545 1545.18 496.991 1547.29 501.276 1547.34 501.843 1547.34 522.86L1547.35 541.977 1540.15 541.977 1532.95 541.977 1532.82 525.679C1532.67 507.728 1532.61 507.182 1530.44 504.567 1528.83 502.622 1526.68 501.727 1523.63 501.727 1522.06 501.727 1520.55 501.949 1519.68 502.312 1517.65 503.158 1515.74 505.184 1514.92 507.355 1514.26 509.131 1514.22 510.11 1514.22 525.605L1514.22 541.977 1506.82 541.977 1499.42 541.977 1499.42 506.033Z" fill="#8DC63F" transform="matrix(1.00111 0 0 1 -217.318 21)"/><path d="M1432.12 506.033 1432.12 470.089 1439.52 470.089 1446.92 470.089 1446.92 506.033 1446.92 541.977 1439.52 541.977 1432.12 541.977Z" fill="#8DC63F" transform="matrix(1.00111 0 0 1 -217.318 21)"/><path d="M1243.23 507.443 1243.23 472.909 1250.64 472.909 1258.04 472.909 1258.04 486.652 1258.04 500.395 1272.13 500.395 1286.23 500.395 1286.23 486.652 1286.23 472.909 1293.8 472.909 1301.38 472.909 1301.38 507.443 1301.38 541.977 1293.8 541.977 1286.23 541.977 1286.23 528.058 1286.23 514.138 1272.13 514.138 1258.04 514.138 1258.04 528.058 1258.04 541.977 1250.64 541.977 1243.23 541.977Z" fill="#8DC63F" transform="matrix(1.00111 0 0 1 -217.318 21)"/><path d="M1128.36 515.548 1128.36 489.118 1135.93 489.118 1143.51 489.118 1143.51 515.548 1143.51 541.977 1135.93 541.977 1128.36 541.977Z" fill="#004B8C" transform="matrix(1.00111 0 0 1 -217.318 21)"/><path d="M960.265 515.548 960.265 489.118 967.841 489.118 975.418 489.118 975.418 492.699 975.418 496.279 977.881 493.777C982.304 489.284 987.6 487.483 993.802 488.357 999.588 489.175 1004.12 492.269 1006.4 496.959 1008.66 501.607 1008.65 501.502 1008.81 522.684L1008.95 541.977 1001.36 541.977 993.774 541.977 993.672 525.15C993.57 508.94 993.538 508.267 992.829 506.738 991.913 504.761 989.637 502.675 987.864 502.182 986.064 501.681 983.054 501.706 981.275 502.234 980.394 502.495 979.174 503.313 978.177 504.307 975.432 507.038 975.418 507.154 975.418 525.831L975.418 541.977 967.841 541.977 960.265 541.977Z" fill="#004B8C" transform="matrix(1.00111 0 0 1 -217.318 21)"/><path d="M771.031 515.548 771.031 489.118 778.431 489.118 785.832 489.118 785.832 492.776 785.832 496.434 788.563 493.71C793.507 488.784 798.958 487.159 805.735 488.593 812.173 489.957 816.472 494.063 818.516 500.793 819.009 502.421 819.108 505.441 819.217 522.331L819.348 541.977 811.926 541.977 804.508 541.977 804.505 527.793C804.501 512.031 804.265 508.683 802.979 506.146 801.925 504.067 801.273 503.457 799.064 502.481 796.597 501.389 792.608 501.628 790.254 503.006 788.291 504.159 786.737 506.421 786.205 508.905 785.973 509.987 785.832 516.594 785.832 526.313L785.832 541.977 778.431 541.977 771.031 541.977 771.031 515.548Z" fill="#004B8C" transform="matrix(1.00111 0 0 1 -217.318 21)"/><path d="M741.43 507.443 741.43 472.909 749.007 472.909 756.583 472.909 756.583 507.443 756.583 541.977 749.007 541.977 741.43 541.977Z" fill="#004B8C" transform="matrix(1.00111 0 0 1 -217.318 21)"/><path d="M1636.69 532.431C1640.47 531.733 1643.5 529.661 1644.83 526.863 1645.16 526.162 1645.5 524.463 1645.59 523.082L1645.75 520.576 1643.51 519.784C1640.45 518.702 1633.93 518.392 1631.19 519.195 1628.93 519.854 1626.74 521.556 1626.07 523.174 1625.8 523.811 1625.58 525.189 1625.58 526.232 1625.58 529.259 1627.41 531.412 1630.75 532.311 1632.9 532.889 1634.09 532.914 1636.69 532.431ZM1623.59 542.182C1615.11 540.124 1610.13 532.709 1611.4 524.016 1612.4 517.165 1616.53 512.866 1624.17 510.738 1625.99 510.23 1627.71 510.103 1632.63 510.121 1638.04 510.139 1639.19 510.248 1642.05 511.013L1645.31 511.886 1645.31 510.107C1645.31 507.778 1644.04 505.085 1642.28 503.619 1638.87 500.8 1631.29 500.455 1623.48 502.76 1621.83 503.246 1620.23 503.718 1619.94 503.803 1619.21 504.014 1615.5 492.991 1616.16 492.586 1617.41 491.814 1624.53 489.76 1627.71 489.259 1632.22 488.544 1641.91 488.741 1644.96 489.608 1650.59 491.205 1654.96 494.633 1657.09 499.123 1659.43 504.042 1659.52 504.958 1659.68 524.446L1659.83 541.977 1652.57 541.977 1645.31 541.977 1645.31 539.158 1645.31 536.342 1643.11 538.118C1638.96 541.466 1635.19 542.7 1629.23 542.654 1627.12 542.636 1624.59 542.425 1623.59 542.182Z" fill="#8DC63F" transform="matrix(1.00111 0 0 1 -217.318 21)"/><path d="M1472.11 542.192C1467.11 540.976 1464.12 537.967 1462.74 532.741 1462.48 531.779 1462.27 525.898 1462.17 516.517L1462 501.805 1458.87 501.805 1455.73 501.805 1455.73 495.462 1455.73 489.118 1458.9 489.118 1462.07 489.118 1462.07 482.423 1462.07 475.728 1469.47 475.728 1476.87 475.728 1476.87 482.423 1476.87 489.118 1483.21 489.118 1489.56 489.118 1489.56 495.462 1489.56 501.805 1483.21 501.805 1476.87 501.805 1476.87 513.522C1476.87 520.425 1477.03 525.771 1477.24 526.539 1477.43 527.251 1478.1 528.262 1478.72 528.78 1479.78 529.675 1479.99 529.714 1482.85 529.573 1484.89 529.467 1486.4 529.178 1487.53 528.671L1489.2 527.92 1489.2 533.911 1489.2 539.902 1487.18 540.8C1486.06 541.294 1484.12 541.914 1482.86 542.182 1480.08 542.774 1474.52 542.781 1472.11 542.192Z" fill="#8DC63F" transform="matrix(1.00111 0 0 1 -217.318 21)"/><path d="M1399.21 531.712C1403.17 530.228 1405.26 527.409 1405.59 523.107L1405.79 520.541 1403.36 519.762C1400 518.688 1393.89 518.413 1391.12 519.216 1388.97 519.843 1386.94 521.376 1386.08 523.04 1385.37 524.414 1385.36 527.459 1386.07 528.826 1387.06 530.736 1388.68 531.811 1391.77 532.596 1393.12 532.942 1397.23 532.452 1399.21 531.712ZM1383.36 542.122C1375.85 540.307 1371.15 534.235 1371.15 526.352 1371.15 520.087 1374.24 515.065 1379.73 512.39 1383.7 510.456 1385.82 510.082 1392.65 510.117 1398.61 510.146 1401.42 510.551 1404.72 511.855 1405.25 512.066 1405.33 511.883 1405.33 510.519 1405.33 508.581 1404.56 506.29 1403.37 504.729 1400.52 501.005 1392.3 500.162 1383.65 502.717 1381.91 503.228 1380.22 503.725 1379.9 503.817 1379.4 503.961 1379.01 503.087 1377.64 498.756 1376.73 495.877 1375.92 493.344 1375.84 493.125 1375.66 492.653 1380.55 490.814 1384.9 489.718 1387.48 489.069 1388.91 488.963 1395.29 488.953 1402.08 488.942 1402.91 489.009 1405.33 489.767 1412.4 491.973 1416.58 496.163 1418.62 503.098 1419.15 504.899 1419.24 507.425 1419.35 523.565L1419.47 541.977 1412.4 541.977 1405.33 541.977 1405.33 539.158C1405.33 537.607 1405.23 536.339 1405.11 536.339 1404.98 536.339 1404.13 537.04 1403.21 537.896 1401.19 539.792 1397.99 541.452 1395.03 542.15 1392.26 542.805 1386.11 542.788 1383.36 542.122Z" fill="#8DC63F" transform="matrix(1.00111 0 0 1 -217.318 21)"/><path d="M1744.39 510.276C1743.99 506.171 1740.51 501.667 1736.93 500.603 1730.45 498.679 1724.59 502.016 1722.47 508.828 1722.09 510.04 1721.87 511.178 1721.98 511.358 1722.1 511.548 1726.81 511.643 1733.35 511.587L1744.51 511.495ZM1729.59 542.664C1722.76 541.441 1716.44 537.696 1712.69 532.653 1705.23 522.617 1705.65 507.386 1713.65 497.4 1716.82 493.453 1722.19 490.102 1727.24 488.925 1730.47 488.171 1736.67 488.174 1739.93 488.928 1748.25 490.856 1754.52 496.903 1757.31 505.681 1758.62 509.836 1759.38 515.971 1758.94 518.924L1758.7 520.481 1740.42 520.481C1724.61 520.481 1722.13 520.552 1722.13 520.996 1722.13 522.31 1723.73 525.549 1725.16 527.141 1727.96 530.25 1732.34 531.649 1737.32 531.025 1740.48 530.63 1743.06 529.594 1745.56 527.705 1746.72 526.835 1747.8 526.12 1747.95 526.12 1748.11 526.12 1750.05 527.733 1752.26 529.703L1756.28 533.287 1755.18 534.549C1752.22 537.935 1747.22 540.945 1742.57 542.139 1739.85 542.837 1732.28 543.144 1729.59 542.664Z" fill="#8DC63F" transform="matrix(1.00111 0 0 1 -217.318 21)"/><path d="M1578.71 542.506C1565.65 539.866 1556.86 529.094 1556.86 515.724 1556.86 502.619 1565.39 491.825 1578.01 488.949 1581.41 488.178 1587.79 488.171 1591.57 488.939 1595.7 489.777 1600.25 492.093 1603.14 494.82L1605.5 497.047 1600.98 501.787 1596.45 506.523 1594.36 504.814C1590.57 501.709 1586.94 500.596 1582.49 501.177 1575.69 502.069 1570.67 509.374 1571.46 517.239 1572.28 525.348 1578.2 530.736 1585.76 530.239 1588.89 530.031 1591.68 529.037 1593.86 527.349 1597.42 524.604 1596.52 524.379 1601.38 529.252L1605.67 533.555 1603.36 535.764C1599.42 539.514 1595.55 541.484 1590.05 542.537 1586.89 543.144 1581.79 543.129 1578.71 542.506Z" fill="#8DC63F" transform="matrix(1.00111 0 0 1 -217.318 21)"/><path d="M1349.74 511.474C1350.06 511.154 1349.14 507.753 1348.27 506.033 1344.49 498.57 1334.06 497.981 1329.57 504.983 1328.38 506.833 1326.97 510.808 1327.3 511.351 1327.51 511.693 1349.4 511.812 1349.74 511.474ZM1334.91 542.64C1327.98 541.487 1321.55 537.604 1317.74 532.272 1314.48 527.705 1313.07 523.396 1312.78 517.134 1312.53 511.816 1313.34 507.506 1315.38 503.168 1320.32 492.72 1330.09 487.283 1341.82 488.46 1352.41 489.524 1359.76 495.86 1362.88 506.622 1363.81 509.832 1364.45 515.837 1364.19 518.807L1364.03 520.481 1345.75 520.481 1327.46 520.481 1327.46 521.306C1327.46 522.8 1329.54 526.38 1331.37 528.026 1333.85 530.253 1336.35 531.116 1340.32 531.109 1344.96 531.102 1349.64 529.379 1351.95 526.821 1352.3 526.437 1352.79 526.12 1353.03 526.12 1353.28 526.12 1355.32 527.737 1357.56 529.714L1361.65 533.308 1359.62 535.366C1355.87 539.158 1351.28 541.537 1345.78 542.53 1342.83 543.066 1337.78 543.115 1334.91 542.64Z" fill="#8DC63F" transform="matrix(1.00111 0 0 1 -217.318 21)"/><path d="M1181.58 531.525C1185.32 529.841 1187.17 527.113 1187.3 523.085L1187.38 520.657 1184.91 519.798C1182.83 519.072 1181.77 518.934 1178.04 518.917 1174.17 518.899 1173.43 518.994 1171.89 519.703 1170.93 520.147 1169.84 520.781 1169.47 521.112 1167.64 522.768 1166.94 526.285 1167.96 528.727 1168.49 529.996 1170.18 531.434 1171.88 532.057 1173.64 532.706 1179.71 532.375 1181.58 531.525ZM1167.3 542.682C1160.86 541.519 1155.99 537.882 1154.01 532.748 1153.12 530.443 1152.77 525.253 1153.33 522.641 1154.69 516.334 1159.9 511.827 1167.49 510.392 1171.69 509.599 1180.37 509.881 1183.94 510.924 1185.34 511.337 1186.65 511.672 1186.85 511.672 1187.36 511.672 1187.29 509.599 1186.72 507.711 1186.02 505.374 1184.59 503.722 1182.32 502.608 1178.61 500.779 1170.3 501.11 1163.72 503.348L1161.26 504.183 1159.39 498.548C1157.3 492.244 1157.23 492.776 1160.42 491.55 1166.47 489.235 1175.17 488.072 1181.62 488.72 1192.27 489.795 1198.14 494.327 1200.67 503.457 1201.4 506.083 1201.44 507.034 1201.57 524.093L1201.7 541.977 1194.45 541.977 1187.2 541.977 1187.2 539.13 1187.2 536.286 1185.38 537.882C1183.06 539.912 1180.26 541.403 1177.36 542.15 1174.62 542.858 1169.71 543.115 1167.3 542.682Z" fill="#004B8C" transform="matrix(1.00111 0 0 1 -217.318 21)"/><path d="M1093.45 542.671C1088.28 541.949 1081.68 539.398 1077.63 536.557 1076.77 535.951 1075.91 535.356 1075.72 535.229 1075.38 534.989 1081.35 525.415 1081.85 525.415 1082 525.415 1083.29 526.13 1084.71 527.008 1089.62 530.038 1095.27 531.67 1099.64 531.317 1103.02 531.046 1104.75 529.693 1104.75 527.314 1104.75 525.052 1103.02 523.966 1095.91 521.771 1087.12 519.054 1084.11 517.556 1081.52 514.614 1077.77 510.357 1076.98 503.873 1079.52 498.126 1081.46 493.749 1086.27 490.179 1091.93 488.921 1098.65 487.427 1108.49 489.259 1115.06 493.231L1117.08 494.457 1115.79 496.811C1112.77 502.273 1111.73 504.109 1111.49 504.356 1111.35 504.5 1109.98 503.986 1108.45 503.214 1101.36 499.651 1094.95 498.883 1092.53 501.301 1091.33 502.502 1091.4 504.553 1092.68 505.751 1094.01 507.002 1094.95 507.425 1101.33 509.684 1111.01 513.109 1115 515.749 1117.01 520.034 1117.79 521.708 1117.98 522.673 1118.08 525.506 1118.46 536.099 1111.75 542.284 1099.28 542.837 1097.35 542.922 1094.72 542.848 1093.45 542.671Z" fill="#004B8C" transform="matrix(1.00111 0 0 1 -217.318 21)"/><path d="M1055.06 510.78C1055.06 509.621 1053.54 505.822 1052.5 504.366 1049.57 500.293 1043.88 498.992 1039.04 501.294 1036.35 502.569 1033.67 506.417 1032.72 510.35L1032.49 511.319 1043.77 511.319C1053.67 511.319 1055.06 511.252 1055.06 510.78ZM1038.93 542.502C1032.31 540.987 1026.1 536.98 1022.7 532.022 1016.72 523.297 1016.28 510.745 1021.63 501.1 1023.36 497.978 1027.79 493.414 1030.8 491.649 1036.52 488.297 1044.36 487.261 1051.09 488.963 1059.94 491.205 1066.57 498.478 1068.82 508.422 1069.44 511.157 1069.89 516.746 1069.66 518.807L1069.44 520.834 1051.15 520.834C1039.67 520.834 1032.86 520.961 1032.86 521.172 1032.86 522.19 1034.44 525.492 1035.55 526.793 1038.26 529.954 1041.67 531.226 1046.74 530.968 1050.7 530.768 1053.21 529.858 1056.34 527.494L1058.62 525.767 1062.81 529.51 1067 533.248 1066.23 534.295C1064.08 537.206 1058 540.966 1053.47 542.189 1050.52 542.985 1041.86 543.172 1038.93 542.502Z" fill="#004B8C" transform="matrix(1.00111 0 0 1 -217.318 21)"/><path d="M927.644 529.27C930.449 528.22 932.856 525.894 934.431 522.705 935.601 520.337 935.76 519.692 935.89 516.764 936.066 512.686 935.224 509.568 933.166 506.696 928.229 499.803 917.939 499.151 912.181 505.371 909.834 507.904 908.812 510.442 908.555 514.353 908.333 517.757 908.83 520.206 910.317 523.036 912.079 526.391 915.807 529.217 919.511 530.003 921.615 530.45 925.403 530.109 927.644 529.27ZM915.853 542.509C905.757 540.497 897.758 533.241 894.671 523.3 893.603 519.865 893.494 512.454 894.46 508.852 897.039 499.225 904.63 491.783 914.63 489.076 918.648 487.991 926.115 487.991 930.136 489.076 939.654 491.649 946.8 498.422 949.697 507.619 950.747 510.96 951.032 517.532 950.278 521.073 947.967 531.945 939.559 540.201 928.476 542.478 925.23 543.144 919.113 543.161 915.853 542.509Z" fill="#004B8C" transform="matrix(1.00111 0 0 1 -217.318 21)"/><path d="M861.427 529.157C866.339 526.909 869.348 521.739 869.348 515.548 869.348 509.3 866.356 504.215 861.307 501.872 858.392 500.522 854.537 500.554 851.471 501.953 846.626 504.162 843.638 509.275 843.627 515.386 843.617 522.589 847.401 528.17 853.466 529.887 855.7 530.521 859.136 530.204 861.427 529.157ZM848.208 542.516C844.91 541.893 839.885 539.429 837.365 537.206 831.054 531.642 827.682 521.655 828.802 511.848 829.32 507.33 830.011 504.909 831.864 501.135 833.154 498.503 834.042 497.262 836.178 495.109 840.91 490.338 845.914 488.252 852.61 488.262 858.646 488.269 862.79 489.837 866.871 493.664L868.996 495.652 868.996 482.871 868.996 470.089 876.572 470.089 884.149 470.089 884.149 506.033 884.149 541.977 876.572 541.977 868.996 541.977 868.996 538.386 868.996 534.799 866.712 537.065C865.454 538.312 863.671 539.771 862.748 540.307 858.822 542.58 853.124 543.447 848.208 542.516Z" fill="#004B8C" transform="matrix(1.00111 0 0 1 -217.318 21)"/><path d="M1176.99 565.411 1176.99 558.892 1184.74 558.892 1192.49 558.892 1192.49 565.411 1192.49 571.93 1184.74 571.93 1176.99 571.93Z" fill="#8DC63F" transform="matrix(1.00111 0 0 1 -217.318 21)"/><path d="M1268.96 604.35 1268.96 577.921 1276.54 577.921 1284.11 577.921 1284.11 581.589 1284.11 585.261 1286.28 583.003C1291.01 578.08 1296.2 576.247 1302.66 577.22 1308.58 578.111 1312.91 581.17 1315.26 586.135 1317.33 590.498 1317.34 590.515 1317.49 611.486L1317.63 630.78 1310.03 630.78 1302.44 630.78 1302.44 614.633C1302.44 595.942 1302.42 595.773 1299.67 593.024 1297.71 591.065 1295.86 590.459 1292.57 590.692 1288.8 590.959 1286.62 592.425 1285.1 595.72 1284.3 597.465 1284.29 597.606 1284.19 614.129L1284.09 630.78 1276.52 630.78 1268.96 630.78Z" fill="#004B8C" transform="matrix(1.00111 0 0 1 -217.318 21)"/><path d="M1177.34 604.35 1177.34 577.921 1184.74 577.921 1192.14 577.921 1192.14 604.35 1192.14 630.78 1184.74 630.78 1177.34 630.78Z" fill="#004B8C" transform="matrix(1.00111 0 0 1 -217.318 21)"/><path d="M1043.08 604.35 1043.08 577.921 1050.47 577.921 1057.86 577.921 1057.95 583.119 1058.05 588.317 1059.24 586.047C1060.69 583.263 1063.63 580.116 1065.97 578.841 1067.77 577.865 1071.6 576.881 1073.65 576.871L1074.79 576.864 1074.79 584.793 1074.79 592.721 1072.94 592.728C1067.44 592.757 1062.61 595.657 1060.23 600.358 1058.28 604.195 1058.14 605.333 1057.97 618.534L1057.81 630.78 1050.45 630.78 1043.08 630.78Z" fill="#004B8C" transform="matrix(1.00111 0 0 1 -217.318 21)"/><path d="M873.577 604.35 873.577 577.921 881.153 577.921 888.73 577.921 888.737 583.119 888.747 588.317 889.942 586.1C893.029 580.37 897.145 577.551 903.255 576.984L905.644 576.762 905.644 584.743 905.644 592.721 903.78 592.721C899.668 592.721 895.041 594.727 892.75 597.503 892.102 598.293 891.161 599.826 890.664 600.911 888.966 604.622 888.744 606.736 888.737 619.239L888.73 630.78 881.153 630.78 873.577 630.78Z" fill="#004B8C" transform="matrix(1.00111 0 0 1 -217.318 21)"/><path d="M1236.36 618.069C1239.27 616.976 1242.45 613.808 1243.58 610.87 1244.69 608.015 1244.96 602.796 1244.15 600.009 1243.34 597.239 1240.98 593.941 1238.65 592.334 1233.48 588.761 1226.18 589.212 1221.65 593.38 1216.02 598.571 1215.65 608.762 1220.89 614.559 1224.72 618.802 1230.76 620.169 1236.36 618.069ZM1224.38 631.319C1216.07 629.511 1208.85 624.045 1205.35 616.906 1203.04 612.216 1202.54 609.974 1202.56 604.526 1202.58 599.501 1203.06 597.081 1204.85 593.148 1207.65 586.963 1213.27 581.646 1219.64 579.147 1227.56 576.043 1236.95 576.381 1244.45 580.046 1249.97 582.742 1254.04 586.868 1256.79 592.545 1258.72 596.524 1259.44 599.776 1259.44 604.421 1259.44 611.965 1256.91 618.168 1251.7 623.415 1247.51 627.636 1243.01 630.096 1237.25 631.305 1234.17 631.953 1227.32 631.96 1224.38 631.319Z" fill="#004B8C" transform="matrix(1.00111 0 0 1 -217.318 21)"/><path d="M1152.67 631.615C1145.47 630.896 1141.92 628.144 1140.08 621.85 1139.66 620.405 1139.51 617.005 1139.37 605.319L1139.21 590.607 1136.25 590.607 1133.29 590.607 1133.29 584.264 1133.29 577.921 1136.28 577.921 1139.28 577.921 1139.28 571.226 1139.28 564.53 1146.86 564.53 1154.43 564.53 1154.43 571.226 1154.43 577.921 1160.6 577.921 1166.77 577.921 1166.77 584.264 1166.77 590.607 1160.6 590.607 1154.43 590.607 1154.43 602.775C1154.43 616.289 1154.51 616.867 1156.59 617.939 1158.13 618.738 1162.47 618.467 1164.83 617.424 1165.75 617.019 1166.56 616.684 1166.64 616.684 1166.71 616.684 1166.77 619.387 1166.77 622.696L1166.77 628.704 1164.92 629.55C1161.6 631.069 1156.25 631.971 1152.67 631.615Z" fill="#004B8C" transform="matrix(1.00111 0 0 1 -217.318 21)"/><path d="M1105.41 620.469C1109.35 619.017 1111.5 616.043 1111.57 611.941L1111.62 609.46 1109.15 608.635C1104.15 606.962 1097.71 607.321 1094.48 609.449 1092.95 610.464 1091.7 612.85 1091.71 614.771 1091.72 616.673 1092.8 618.879 1094.21 619.88 1096.66 621.625 1101.57 621.882 1105.41 620.469ZM1091.44 631.47C1082.46 629.856 1077.26 623.876 1077.26 615.155 1077.26 607.695 1081.35 602.395 1089.04 599.893 1094.33 598.169 1104.57 598.37 1110.05 600.305L1111.53 600.826 1111.38 598.793C1111.08 594.67 1108.82 591.9 1104.78 590.727 1100.92 589.606 1091.88 590.558 1086.39 592.665L1085.47 593.017 1083.77 587.672C1082.84 584.733 1082.02 582.146 1081.94 581.924 1081.8 581.554 1084.9 580.187 1087.86 579.313 1092.93 577.808 1100.29 577.107 1105.9 577.593 1114.57 578.347 1120.35 581.773 1123.4 587.982 1125.6 592.44 1125.64 592.898 1125.8 612.72L1125.93 630.78 1118.69 630.78 1111.44 630.78 1111.44 627.929 1111.44 625.074 1109.6 626.727C1107.56 628.567 1104.84 630.054 1101.93 630.931 1099.57 631.636 1093.97 631.925 1091.44 631.47Z" fill="#004B8C" transform="matrix(1.00111 0 0 1 -217.318 21)"/><path d="M1007.91 618.756C1011.47 618.002 1014.22 616.191 1016.05 613.393 1021.11 605.696 1018.56 595.089 1010.73 591.234 1008.52 590.145 1008.17 590.078 1004.67 590.093 1001.43 590.107 1000.72 590.223 998.943 591.041 993.46 593.571 990.144 600.27 991.201 606.669 992.622 615.225 999.86 620.462 1007.91 618.756ZM997.016 630.984C987.04 628.341 979.724 621.191 977.141 611.553 976.105 607.698 976.102 601.432 977.134 597.553 979.685 587.95 987.315 580.564 997.442 577.889 1000.81 576.998 1007.87 576.815 1011.19 577.537 1016.93 578.781 1022.35 581.811 1026.16 585.906 1028.93 588.877 1030.54 591.513 1031.84 595.181 1037.05 609.911 1029.23 625.557 1014.19 630.487 1011.16 631.481 1010.32 631.601 1005.55 631.717 1000.82 631.83 999.92 631.752 997.016 630.984Z" fill="#004B8C" transform="matrix(1.00111 0 0 1 -217.318 21)"/><path d="M840.893 618.101C845.276 616.451 848.709 611.849 849.202 606.954 849.695 602.07 848.578 597.891 845.918 594.642 841.231 588.923 831.766 588.317 826.268 593.38 821.67 597.62 820.447 605.703 823.499 611.673 825.137 614.876 828.964 617.879 832.566 618.781 834.595 619.292 838.592 618.964 840.893 618.101ZM829 631.315C818.755 629.056 810.76 621.681 807.979 611.927 806.929 608.251 806.848 601.175 807.814 597.676 810.619 587.506 818.294 580.264 829 577.692 832.689 576.804 839.078 576.885 843.095 577.868 853.297 580.37 861.035 588.013 863.407 597.93 864.341 601.841 864.182 608.879 863.083 612.321 859.936 622.167 852.106 629.152 841.791 631.322 838.785 631.957 831.886 631.95 829 631.315Z" fill="#004B8C" transform="matrix(1.00111 0 0 1 -217.318 21)"/><path d="M766.563 631.47C753.306 629.106 742.456 619.26 738.999 606.458 735.595 593.853 738.664 580.835 747.185 571.719 753.687 564.763 761.88 561.161 772.127 560.753 782.057 560.354 789.824 562.525 796.58 567.592 800.357 570.426 800.875 571.025 800.241 571.835 799.141 573.241 791.339 582.15 791.209 582.15 791.132 582.15 789.94 581.269 788.563 580.194 785.747 577.988 781.303 575.74 778.491 575.095 775.767 574.471 770.827 574.556 768.36 575.268 763.441 576.688 758.595 580.532 756.351 584.793 754.289 588.708 753.595 591.675 753.627 596.422 753.651 600.002 753.796 601.084 754.585 603.469 756.819 610.221 761.059 614.756 767.176 616.938 769.445 617.748 770.341 617.872 773.85 617.861 777.272 617.854 778.319 617.709 780.581 616.934 783.788 615.838 786.67 614.182 789.532 611.786L791.646 610.02 796.509 614.848 801.372 619.679 798.867 622.079C795.973 624.852 791.569 627.823 788.348 629.176 783.872 631.055 781.194 631.537 774.555 631.671 771.165 631.742 767.567 631.65 766.563 631.47Z" fill="#004B8C" transform="matrix(1.00111 0 0 1 -217.318 21)"/><path d="M944.231 618.672C946.737 618.005 948.132 617.206 949.933 615.405 953.073 612.265 954.63 607.025 953.933 601.933 952.026 587.999 935.185 585.141 929.582 597.803 928.624 599.974 928.198 603.822 928.578 606.866 929.639 615.299 936.754 620.666 944.231 618.672ZM913.75 612.279 913.75 577.921 921.15 577.921 928.55 577.921 928.55 581.692 928.55 585.462 930.305 583.492C932.525 581.004 935.355 579.119 938.558 577.991 940.591 577.276 941.75 577.11 944.76 577.096 951.667 577.061 956.523 579.052 961.333 583.883 964.762 587.33 966.781 590.875 968.078 595.717 969.128 599.632 969.212 608.554 968.24 612.455 967.369 615.937 965.35 620.211 963.296 622.925 958.859 628.778 951.205 632.189 943.615 631.692 938.304 631.347 934.336 629.589 930.576 625.91L928.55 623.929 928.55 635.283 928.55 646.637 921.15 646.637 913.75 646.637Z" fill="#004B8C" transform="matrix(1.00111 0 0 1 -217.318 21)"/><path d="M239.273 633.239C268.869 631.939 290.721 627.883 310.809 619.968 328.854 612.857 345.245 602.419 357.152 590.456 370.38 577.167 377.833 561.757 379.5 544.268 380.572 533.002 380.815 502.971 380.004 481.419L379.789 475.661 376.572 475.883C357.127 477.243 346.587 478.543 333.362 481.214 323.888 483.131 316.698 485.041 307.637 488.058 283.681 496.025 262.776 507.616 249.99 520.02 238.79 530.88 232.975 541.79 230.485 556.601 228.2 570.204 227.166 583.119 226.24 609.636 225.577 628.584 225.509 630.255 225.332 631.925L225.153 633.599 228.249 633.595C229.952 633.592 234.913 633.433 239.273 633.239ZM197.339 677.736 184.829 677.641 184.799 659.232C184.779 647.642 184.548 636.189 184.176 628.313 182.581 594.642 183.106 575.151 186.093 557.137 190.863 528.382 202.126 505.494 220.609 487.001 235.8 471.802 254.709 460.92 277.877 454.045 304.402 446.169 333.232 440.492 381.463 433.642 406.219 430.125 412.576 429.49 441.898 427.626 483.91 424.955 499.116 423.116 517.838 418.429 565.393 406.529 589.663 380.709 595.519 335.789 596.714 326.638 596.947 321.182 596.947 302.528 596.947 280.93 596.728 278.911 594.304 277.687 592.986 277.023 592.14 277.021 530.701 277.594 462.513 278.229 432.017 279.073 406.13 281.043 365.147 284.162 330.124 295.413 301.203 314.752 284.469 325.94 269.974 339.569 256.944 356.362 254.415 359.622 252.173 362.11 250.79 363.195 249.592 364.133 246.171 366.927 243.188 369.401 240.204 371.878 237.714 373.855 237.655 373.795 237.358 373.499 243.095 352.416 245.061 346.576 255.525 315.505 273.171 291.307 298.584 273.181 328.555 251.804 371.839 238.924 420.755 236.826 443.745 235.84 610.658 234.919 621.089 235.72 633.296 236.658 637.838 237.054 637.965 237.19 638.289 237.542 639.061 286.57 639.054 306.228 639.036 341.75 637.553 355.414 631.971 371.466 626.41 387.45 617.484 401.489 604.361 414.887 577.329 442.487 539.591 461.086 495.638 468.472 479.745 471.14 466.618 472.26 443.484 472.919 427.133 473.381 424.994 473.8 423.503 476.806 422.421 478.994 422.118 484.086 421.784 505.857 421.6 517.68 421.375 527.906 421.287 528.586 421.195 529.266 420.864 532.357 420.554 535.458 418.912 551.777 414.514 569.58 408.731 583.341 398.579 607.487 382.365 627.298 360.739 641.979 337.392 657.822 310.15 667.28 271.751 672.869 251.621 675.798 224.916 678.127 213.901 677.912 211.672 677.87 204.219 677.789 197.339 677.736Z" fill="#8DC63F" transform="matrix(1.00111 0 0 1 -217.318 21)"/></g></g></g></g></svg>